<mxfile host="Electron" agent="Mozilla/5.0 (Macintosh; Intel Mac OS X 10_15_7) AppleWebKit/537.36 (KHTML, like Gecko) draw.io/25.0.2 Chrome/128.0.6613.186 Electron/32.2.5 Safari/537.36" version="25.0.2">
  <diagram name="Page-1" id="MOhUH4hJnnMsa3N8j8xM">
    <mxGraphModel dx="783" dy="701" grid="1" gridSize="10" guides="1" tooltips="1" connect="1" arrows="1" fold="1" page="1" pageScale="1" pageWidth="850" pageHeight="1100" math="0" shadow="0">
      <root>
        <mxCell id="0" />
        <mxCell id="1" parent="0" />
        <mxCell id="bPSPjtZm-p1JGHKQZ9GO-15" style="rounded=0;orthogonalLoop=1;jettySize=auto;html=1;" parent="1" source="bPSPjtZm-p1JGHKQZ9GO-2" target="bPSPjtZm-p1JGHKQZ9GO-8" edge="1">
          <mxGeometry relative="1" as="geometry" />
        </mxCell>
        <mxCell id="bPSPjtZm-p1JGHKQZ9GO-2" value="" style="ellipse;whiteSpace=wrap;html=1;aspect=fixed;fillColor=none;strokeColor=#ef4444;" parent="1" vertex="1">
          <mxGeometry x="90" y="90" width="40" height="40" as="geometry" />
        </mxCell>
        <mxCell id="bPSPjtZm-p1JGHKQZ9GO-6" value="" style="ellipse;whiteSpace=wrap;html=1;aspect=fixed;dashed=1;fillStyle=cross-hatch;fillColor=#737373;" parent="1" vertex="1">
          <mxGeometry x="120" y="120" width="160" height="160" as="geometry" />
        </mxCell>
        <mxCell id="bPSPjtZm-p1JGHKQZ9GO-16" style="rounded=0;orthogonalLoop=1;jettySize=auto;html=1;" parent="1" source="bPSPjtZm-p1JGHKQZ9GO-9" target="bPSPjtZm-p1JGHKQZ9GO-8" edge="1">
          <mxGeometry relative="1" as="geometry">
            <mxPoint x="310" y="50" as="sourcePoint" />
          </mxGeometry>
        </mxCell>
        <mxCell id="bPSPjtZm-p1JGHKQZ9GO-8" value="" style="ellipse;whiteSpace=wrap;html=1;aspect=fixed;fillColor=none;strokeColor=#ef4444;" parent="1" vertex="1">
          <mxGeometry x="180" y="60" width="40" height="40" as="geometry" />
        </mxCell>
        <mxCell id="bPSPjtZm-p1JGHKQZ9GO-17" style="rounded=0;orthogonalLoop=1;jettySize=auto;html=1;" parent="1" source="bPSPjtZm-p1JGHKQZ9GO-13" target="bPSPjtZm-p1JGHKQZ9GO-12" edge="1">
          <mxGeometry relative="1" as="geometry">
            <mxPoint x="110" y="360" as="sourcePoint" />
            <Array as="points">
              <mxPoint x="140" y="330" />
            </Array>
          </mxGeometry>
        </mxCell>
        <mxCell id="bPSPjtZm-p1JGHKQZ9GO-9" value="" style="ellipse;whiteSpace=wrap;html=1;aspect=fixed;fillColor=none;strokeColor=#ef4444;" parent="1" vertex="1">
          <mxGeometry x="270" y="90" width="40" height="40" as="geometry" />
        </mxCell>
        <mxCell id="bPSPjtZm-p1JGHKQZ9GO-18" style="edgeStyle=none;shape=connector;rounded=0;orthogonalLoop=1;jettySize=auto;html=1;strokeColor=default;align=center;verticalAlign=middle;fontFamily=Helvetica;fontSize=11;fontColor=default;labelBackgroundColor=default;endArrow=classic;" parent="1" source="bPSPjtZm-p1JGHKQZ9GO-10" target="bPSPjtZm-p1JGHKQZ9GO-11" edge="1">
          <mxGeometry relative="1" as="geometry" />
        </mxCell>
        <mxCell id="bPSPjtZm-p1JGHKQZ9GO-10" value="" style="ellipse;whiteSpace=wrap;html=1;aspect=fixed;fillColor=none;strokeColor=#3b82f6;" parent="1" vertex="1">
          <mxGeometry x="300" y="180" width="40" height="40" as="geometry" />
        </mxCell>
        <mxCell id="bPSPjtZm-p1JGHKQZ9GO-19" style="edgeStyle=none;shape=connector;rounded=0;orthogonalLoop=1;jettySize=auto;html=1;strokeColor=default;align=center;verticalAlign=middle;fontFamily=Helvetica;fontSize=11;fontColor=default;labelBackgroundColor=default;endArrow=classic;" parent="1" source="bPSPjtZm-p1JGHKQZ9GO-11" target="bPSPjtZm-p1JGHKQZ9GO-12" edge="1">
          <mxGeometry relative="1" as="geometry" />
        </mxCell>
        <mxCell id="bPSPjtZm-p1JGHKQZ9GO-11" value="" style="ellipse;whiteSpace=wrap;html=1;aspect=fixed;fillColor=none;strokeColor=#3b82f6;" parent="1" vertex="1">
          <mxGeometry x="270" y="270" width="40" height="40" as="geometry" />
        </mxCell>
        <mxCell id="bPSPjtZm-p1JGHKQZ9GO-20" style="edgeStyle=none;shape=connector;rounded=0;orthogonalLoop=1;jettySize=auto;html=1;strokeColor=default;align=center;verticalAlign=middle;fontFamily=Helvetica;fontSize=11;fontColor=default;labelBackgroundColor=default;endArrow=classic;" parent="1" source="bPSPjtZm-p1JGHKQZ9GO-12" target="bPSPjtZm-p1JGHKQZ9GO-13" edge="1">
          <mxGeometry relative="1" as="geometry" />
        </mxCell>
        <mxCell id="bPSPjtZm-p1JGHKQZ9GO-12" value="" style="ellipse;whiteSpace=wrap;html=1;aspect=fixed;fillColor=none;strokeColor=#3b82f6;" parent="1" vertex="1">
          <mxGeometry x="180" y="300" width="40" height="40" as="geometry" />
        </mxCell>
        <mxCell id="bPSPjtZm-p1JGHKQZ9GO-21" style="edgeStyle=none;shape=connector;rounded=0;orthogonalLoop=1;jettySize=auto;html=1;strokeColor=default;align=center;verticalAlign=middle;fontFamily=Helvetica;fontSize=11;fontColor=default;labelBackgroundColor=default;endArrow=classic;" parent="1" source="bPSPjtZm-p1JGHKQZ9GO-14" target="bPSPjtZm-p1JGHKQZ9GO-13" edge="1">
          <mxGeometry relative="1" as="geometry">
            <mxPoint x="40" y="270" as="sourcePoint" />
          </mxGeometry>
        </mxCell>
        <mxCell id="bPSPjtZm-p1JGHKQZ9GO-13" value="" style="ellipse;whiteSpace=wrap;html=1;aspect=fixed;fillColor=none;strokeColor=#3b82f6;" parent="1" vertex="1">
          <mxGeometry x="90" y="270" width="40" height="40" as="geometry" />
        </mxCell>
        <mxCell id="bPSPjtZm-p1JGHKQZ9GO-22" style="edgeStyle=none;shape=connector;rounded=0;orthogonalLoop=1;jettySize=auto;html=1;strokeColor=default;align=center;verticalAlign=middle;fontFamily=Helvetica;fontSize=11;fontColor=default;labelBackgroundColor=default;endArrow=classic;" parent="1" source="bPSPjtZm-p1JGHKQZ9GO-8" target="bPSPjtZm-p1JGHKQZ9GO-2" edge="1">
          <mxGeometry relative="1" as="geometry">
            <mxPoint x="150" y="30" as="sourcePoint" />
            <Array as="points">
              <mxPoint x="140" y="70" />
            </Array>
          </mxGeometry>
        </mxCell>
        <mxCell id="bPSPjtZm-p1JGHKQZ9GO-14" value="" style="ellipse;whiteSpace=wrap;html=1;aspect=fixed;fillColor=none;strokeColor=#3b82f6;" parent="1" vertex="1">
          <mxGeometry x="60" y="180" width="40" height="40" as="geometry" />
        </mxCell>
      </root>
    </mxGraphModel>
  </diagram>
</mxfile>
